<svg width="15" height="17" viewBox="0 0 15 17" fill="none" xmlns="http://www.w3.org/2000/svg">
<path d="M0.888904 16.0919C0.888904 16.3374 0.689964 16.5363 0.444452 16.5363C0.19894 16.5363 0 16.3374 0 16.0919C0 14.0291 0.843851 12.1536 2.20302 10.7949C3.05346 9.94448 4.10587 9.29603 5.27977 8.92953C4.86164 8.70731 4.48046 8.42434 4.14839 8.09226C3.29087 7.23475 2.75985 6.0492 2.75985 4.74015C2.75985 3.43159 3.29036 2.24605 4.14839 1.38853C5.00591 0.531014 6.19094 0 7.5 0C8.80906 0 9.99409 0.530507 10.8516 1.38853C11.7091 2.24605 12.2401 3.43159 12.2401 4.74015C12.2401 6.0492 11.7096 7.23424 10.8516 8.09226C10.5195 8.42434 10.1384 8.70731 9.72023 8.92953C10.8941 9.29603 11.9465 9.94448 12.797 10.7949C14.1561 12.1541 15 14.0291 15 16.0919C15 16.3374 14.8011 16.5363 14.5555 16.5363C14.31 16.5363 14.1111 16.3374 14.1111 16.0919C14.1111 14.2741 13.367 12.6213 12.1688 11.4231C10.9701 10.2244 9.31729 9.4808 7.49949 9.4808C5.68169 9.4808 4.02892 10.2244 2.83072 11.4231C1.63202 12.6213 0.888398 14.2746 0.888398 16.0919H0.888904ZM10.2239 2.01674C9.52686 1.31969 8.56405 0.888904 7.50051 0.888904C6.43696 0.888904 5.47364 1.32019 4.7771 2.01674C4.08005 2.71379 3.64926 3.6766 3.64926 4.74015C3.64926 5.80369 4.08055 6.76701 4.7771 7.46355C5.47415 8.1606 6.43696 8.59189 7.50051 8.59189C8.56405 8.59189 9.52737 8.1606 10.2239 7.46355C10.921 6.7665 11.3517 5.80369 11.3517 4.74015C11.3517 3.6766 10.9205 2.71328 10.2239 2.01674Z" fill="black"/>
</svg>
