<svg width="19" height="24" viewBox="0 0 19 24" fill="none" xmlns="http://www.w3.org/2000/svg">
<path fill-rule="evenodd" clip-rule="evenodd" d="M9.49983 0C6.50735 0 4.07467 2.32705 4.07467 5.18139C4.07467 7.16891 5.25437 8.90045 6.98109 9.76902C2.95256 10.8157 0 14.3128 0 18.4771V22.5741C1.45576e-05 22.6953 0.0507781 22.8115 0.141126 22.8972C0.231475 22.9829 0.354009 23.0311 0.481781 23.0311H16.2079C16.3357 23.0311 16.4582 22.9829 16.5486 22.8972C16.6389 22.8115 16.6897 22.6953 16.6897 22.5741C16.6897 22.4529 16.6389 22.3366 16.5486 22.2509C16.4582 22.1652 16.3357 22.1171 16.2079 22.1171H0.963616V18.4771C0.963616 13.9734 4.76294 10.3628 9.49999 10.3628C14.237 10.3628 18.0364 13.9734 18.0364 18.4771V22.1171H16.7921C16.6644 22.1171 16.5418 22.1652 16.4515 22.2509C16.3611 22.3366 16.3104 22.4529 16.3104 22.5741C16.3104 22.6953 16.3611 22.8115 16.4515 22.8972C16.5418 22.9829 16.6644 23.0311 16.7921 23.0311H18.5182C18.646 23.0311 18.7685 22.9829 18.8589 22.8972C18.9492 22.8115 19 22.6953 19 22.5741V18.4771C19 14.3128 16.0473 10.8156 12.0187 9.76897C13.7453 8.90038 14.925 7.16887 14.925 5.18139C14.925 2.32705 12.4923 0 9.49983 0ZM9.49983 0.914038C11.9677 0.914038 13.9614 2.81734 13.9614 5.18139C13.9614 7.54544 11.9677 9.44872 9.49983 9.44872C7.03202 9.44872 5.03823 7.54544 5.03823 5.18139C5.03823 2.81734 7.03202 0.914038 9.49983 0.914038Z" fill="black"/>
</svg>
