<svg width="24" height="18" viewBox="0 0 24 18" fill="none" xmlns="http://www.w3.org/2000/svg">
<path d="M12 0C8.78868 0 6.19295 2.62344 6.19295 5.86997V6.26005H5.80705C2.59574 6.26005 0 8.88349 0 12.13C0 15.3766 2.59531 18 5.80705 18H18.1929C21.4043 18 24 15.3766 24 12.13C24 8.88349 21.4047 6.26005 18.1929 6.26005H17.8071V5.86997C17.8071 2.62386 15.2117 0 12 0ZM12.0017 1.3051C14.4902 1.3051 16.5164 3.35323 16.5164 5.86869C16.5164 6.22378 16.4725 6.56819 16.3973 6.89895L16.4003 6.90065L16.3986 6.90663V6.90834C16.3893 6.94845 16.3821 6.99924 16.3821 7.05003C16.3821 7.4145 16.6684 7.70386 17.0289 7.70386C17.0766 7.70386 17.1235 7.69746 17.175 7.68551H17.1767C17.4887 7.60997 17.8362 7.56814 18.1959 7.56814C20.6844 7.56814 22.7106 9.61628 22.7106 12.1317C22.7106 14.6472 20.6844 16.6936 18.1959 16.6936H17.8071V16.6919H5.80578C3.31729 16.6919 1.29111 14.6455 1.29111 12.13C1.29111 9.61457 3.31729 7.56644 5.80578 7.56644C6.15917 7.56644 6.50116 7.60954 6.82964 7.68679H6.83259C6.8727 7.69661 6.92337 7.70343 6.97446 7.70343C7.33502 7.70343 7.62128 7.41407 7.62128 7.0496C7.62128 6.99753 7.61537 6.94931 7.60481 6.90023V6.89852C7.60481 6.89767 7.60481 6.89639 7.60481 6.89553V6.89255C7.53135 6.58014 7.48702 6.23061 7.48702 5.86827C7.48702 3.35281 9.5132 1.3051 12.0017 1.3051ZM12.1296 9.5864C10.6654 9.5864 9.37049 10.1805 8.34917 11.0818L9.26282 12.0054C10.0477 11.3392 11.0264 10.8928 12.1292 10.8928C13.232 10.8928 14.2107 11.3396 14.9956 12.0054L15.9092 11.0818C14.8887 10.1809 13.5938 9.5864 12.1296 9.5864ZM12.1296 12.7156C11.5204 12.7156 10.9888 12.9541 10.5375 13.2947L11.5132 14.2793C11.7125 14.1726 11.8911 14.0215 12.13 14.0215C12.369 14.0215 12.5468 14.1726 12.7452 14.2793L13.7209 13.2947C13.2696 12.9541 12.7389 12.7156 12.1296 12.7156Z" fill="black"/>
<path d="M8.34917 11.0818C9.37049 10.1805 10.6654 9.5864 12.1296 9.5864C13.5938 9.5864 14.8887 10.1809 15.9092 11.0818L14.9956 12.0054C14.2107 11.3396 13.232 10.8928 12.1292 10.8928C11.0264 10.8928 10.0477 11.3392 9.26282 12.0054L8.34917 11.0818Z" fill="black"/>
</svg>
