<svg width="16" height="17" viewBox="0 0 16 17" fill="none" xmlns="http://www.w3.org/2000/svg">
<path d="M10.7057 10.9657C10.7057 10.7218 10.9033 10.5241 11.1472 10.5241C11.3912 10.5241 11.5888 10.7218 11.5888 10.9657V12.7325C11.5888 13.7494 11.1729 14.6732 10.5035 15.3431C9.83362 16.0125 8.90975 16.4284 7.89285 16.4284H3.69597C2.67906 16.4284 1.75469 16.0125 1.0853 15.3431C0.415413 14.6732 0 13.7494 0 12.7325V3.69597C0 2.67906 0.415413 1.7552 1.0853 1.0853C1.75469 0.415916 2.67906 0 3.69597 0H7.89285C8.90975 0 9.83362 0.415916 10.5035 1.0853C11.1729 1.7552 11.5888 2.67906 11.5888 3.69597V5.46273C11.5888 5.70665 11.3912 5.9043 11.1472 5.9043C10.9033 5.9043 10.7057 5.70665 10.7057 5.46273V3.69597C10.7057 2.92298 10.3888 2.21939 9.87888 1.70943C9.36892 1.19896 8.66533 0.882627 7.89234 0.882627H3.69547C2.92248 0.882627 2.21889 1.19947 1.70893 1.70943C1.19896 2.21939 0.882124 2.92298 0.882124 3.69597V12.7325C0.882124 13.5054 1.19896 14.209 1.70893 14.719C2.21939 15.2295 2.92248 15.5458 3.69547 15.5458H7.89234C8.66533 15.5458 9.36892 15.229 9.87888 14.719C10.3893 14.209 10.7057 13.5054 10.7057 12.7325V10.9657ZM12.5589 5.83892C12.3864 5.66641 12.3864 5.38729 12.5589 5.21479C12.7315 5.04229 13.0106 5.04229 13.1831 5.21479L15.8667 7.89838C16.0442 8.0739 16.0447 8.35453 15.8667 8.53005L13.1831 11.2136C13.0106 11.3861 12.7315 11.3861 12.5589 11.2136C12.3864 11.0411 12.3864 10.762 12.5589 10.5895L14.4927 8.65578H5.79365C5.54974 8.65578 5.35209 8.45813 5.35209 8.21421C5.35209 7.9703 5.54974 7.77265 5.79365 7.77265H14.4927L12.5589 5.83892Z" fill="black"/>
</svg>
