<svg width="19" height="19" viewBox="0 0 19 19" fill="none" xmlns="http://www.w3.org/2000/svg">
<path d="M6.10714 0H2.03571C1.49581 0 0.978017 0.214476 0.596247 0.596247C0.214476 0.978017 0 1.49581 0 2.03571V6.10714C0 6.64705 0.214476 7.16484 0.596247 7.54661C0.978017 7.92838 1.49581 8.14286 2.03571 8.14286H6.10714C6.64705 8.14286 7.16484 7.92838 7.54661 7.54661C7.92838 7.16484 8.14286 6.64705 8.14286 6.10714V2.03571C8.14286 1.49581 7.92838 0.978017 7.54661 0.596247C7.16484 0.214476 6.64705 0 6.10714 0ZM6.78571 6.10714C6.78551 6.28705 6.71395 6.45953 6.58674 6.58674C6.45953 6.71395 6.28705 6.78551 6.10714 6.78571H2.03571C1.85581 6.78551 1.68333 6.71395 1.55612 6.58674C1.42891 6.45953 1.35735 6.28705 1.35714 6.10714V2.03571C1.35735 1.85581 1.42891 1.68333 1.55612 1.55612C1.68333 1.42891 1.85581 1.35735 2.03571 1.35714H6.10714C6.28705 1.35735 6.45953 1.42891 6.58674 1.55612C6.71395 1.68333 6.78551 1.85581 6.78571 2.03571V6.10714ZM16.9643 0H12.8929C12.353 0 11.8352 0.214476 11.4534 0.596247C11.0716 0.978017 10.8571 1.49581 10.8571 2.03571V6.10714C10.8571 6.64705 11.0716 7.16484 11.4534 7.54661C11.8352 7.92838 12.353 8.14286 12.8929 8.14286H16.9643C17.5042 8.14286 18.022 7.92838 18.4038 7.54661C18.7855 7.16484 19 6.64705 19 6.10714V2.03571C19 1.49581 18.7855 0.978017 18.4038 0.596247C18.022 0.214476 17.5042 0 16.9643 0ZM17.6429 6.10714C17.6427 6.28705 17.5711 6.45953 17.4439 6.58674C17.3167 6.71395 17.1442 6.78551 16.9643 6.78571H12.8929C12.713 6.78551 12.5405 6.71395 12.4133 6.58674C12.286 6.45953 12.2145 6.28705 12.2143 6.10714V2.03571C12.2145 1.85581 12.286 1.68333 12.4133 1.55612C12.5405 1.42891 12.713 1.35735 12.8929 1.35714H16.9643C17.1442 1.35735 17.3167 1.42891 17.4439 1.55612C17.5711 1.68333 17.6427 1.85581 17.6429 2.03571V6.10714ZM6.10714 10.8571H2.03571C1.49581 10.8571 0.978017 11.0716 0.596247 11.4534C0.214476 11.8352 0 12.353 0 12.8929V16.9643C0 17.5042 0.214476 18.022 0.596247 18.4038C0.978017 18.7855 1.49581 19 2.03571 19H6.10714C6.64705 19 7.16484 18.7855 7.54661 18.4038C7.92838 18.022 8.14286 17.5042 8.14286 16.9643V12.8929C8.14286 12.353 7.92838 11.8352 7.54661 11.4534C7.16484 11.0716 6.64705 10.8571 6.10714 10.8571ZM6.78571 16.9643C6.78551 17.1442 6.71395 17.3167 6.58674 17.4439C6.45953 17.5711 6.28705 17.6427 6.10714 17.6429H2.03571C1.85581 17.6427 1.68333 17.5711 1.55612 17.4439C1.42891 17.3167 1.35735 17.1442 1.35714 16.9643V12.8929C1.35735 12.713 1.42891 12.5405 1.55612 12.4133C1.68333 12.286 1.85581 12.2145 2.03571 12.2143H6.10714C6.28705 12.2145 6.45953 12.286 6.58674 12.4133C6.71395 12.5405 6.78551 12.713 6.78571 12.8929V16.9643ZM19 14.9286C19.0001 15.0177 18.9825 15.106 18.9485 15.1883C18.9144 15.2707 18.8644 15.3455 18.8014 15.4085C18.7383 15.4715 18.6635 15.5215 18.5812 15.5556C18.4988 15.5897 18.4106 15.6072 18.3214 15.6071H15.6071V18.3214C15.6071 18.5014 15.5357 18.674 15.4084 18.8013C15.2811 18.9285 15.1085 19 14.9286 19C14.7486 19 14.576 18.9285 14.4487 18.8013C14.3215 18.674 14.25 18.5014 14.25 18.3214V15.6071H11.5357C11.3557 15.6071 11.1831 15.5357 11.0559 15.4084C10.9286 15.2811 10.8571 15.1085 10.8571 14.9286C10.8571 14.7486 10.9286 14.576 11.0559 14.4487C11.1831 14.3215 11.3557 14.25 11.5357 14.25H14.25V11.5357C14.25 11.3557 14.3215 11.1831 14.4487 11.0559C14.576 10.9286 14.7486 10.8571 14.9286 10.8571C15.1085 10.8571 15.2811 10.9286 15.4084 11.0559C15.5357 11.1831 15.6071 11.3557 15.6071 11.5357V14.25H18.3214C18.4106 14.2499 18.4988 14.2675 18.5812 14.3015C18.6635 14.3356 18.7383 14.3856 18.8014 14.4486C18.8644 14.5117 18.9144 14.5865 18.9485 14.6688C18.9825 14.7512 19.0001 14.8394 19 14.9286Z" fill="black"/>
</svg>
