<svg width="21" height="19" viewBox="0 0 21 19" fill="none" xmlns="http://www.w3.org/2000/svg">
<path d="M10 1.5C10 0.671573 9.32843 0 8.5 0H1.5C0.671573 0 0 0.671573 0 1.5C0 2.32843 0.671573 3 1.5 3H8.5C9.32843 3 10 2.32843 10 1.5Z" fill="black"/>
<path d="M21 9.5C21 8.67157 20.3284 8 19.5 8H1.5C0.671574 8 0 8.67157 0 9.5C0 10.3284 0.671574 11 1.5 11H19.5C20.3284 11 21 10.3284 21 9.5Z" fill="black"/>
<path d="M17 17.5C17 16.6716 16.3284 16 15.5 16H1.5C0.671574 16 0 16.6716 0 17.5C0 18.3284 0.671574 19 1.5 19H15.5C16.3284 19 17 18.3284 17 17.5Z" fill="black"/>
</svg>
