<svg width="19" height="27" viewBox="0 0 19 27" fill="none" xmlns="http://www.w3.org/2000/svg">
<path fill-rule="evenodd" clip-rule="evenodd" d="M9.49983 0C6.50735 0 4.07467 2.32705 4.07467 5.18139C4.07467 7.16891 5.25437 8.90045 6.98109 9.76902C2.95256 10.8157 0 14.3128 0 18.4771V22.5741C1.45576e-05 22.6953 0.0507781 22.8115 0.141126 22.8972C0.231475 22.9829 0.354009 23.0311 0.481781 23.0311H2.20789C2.33567 23.0311 2.45821 22.9829 2.54856 22.8972C2.63891 22.8115 2.68967 22.6953 2.68967 22.5741C2.68967 22.4529 2.6389 22.3366 2.54855 22.2509C2.4582 22.1652 2.33566 22.1171 2.20789 22.1171H0.963616V18.4771C0.963616 13.9734 4.76294 10.3628 9.49999 10.3628C14.237 10.3628 18.0364 13.9734 18.0364 18.4771V22.1171H16.7921C16.6644 22.1171 16.5418 22.1652 16.4515 22.2509C16.3611 22.3366 16.3104 22.4529 16.3104 22.5741C16.3104 22.6953 16.3611 22.8115 16.4515 22.8972C16.5418 22.9829 16.6644 23.0311 16.7921 23.0311H18.5182C18.646 23.0311 18.7685 22.9829 18.8589 22.8972C18.9492 22.8115 19 22.6953 19 22.5741V18.4771C19 14.3128 16.0473 10.8156 12.0187 9.76897C13.7453 8.90038 14.925 7.16887 14.925 5.18139C14.925 2.32705 12.4923 0 9.49983 0ZM9.49983 0.914038C11.9677 0.914038 13.9614 2.81734 13.9614 5.18139C13.9614 7.54544 11.9677 9.44872 9.49983 9.44872C7.03202 9.44872 5.03823 7.54544 5.03823 5.18139C5.03823 2.81734 7.03202 0.914038 9.49983 0.914038ZM8.61524 14.4704C8.48746 14.4704 8.36492 14.5186 8.27457 14.6043C8.18422 14.69 8.13346 14.8062 8.13346 14.9274V15.3958C7.62837 15.5193 7.14455 15.7104 6.69586 15.9637L6.35328 15.6363C6.3085 15.5935 6.25522 15.5595 6.19653 15.5363C6.13784 15.5132 6.07489 15.5012 6.01131 15.5012C5.94774 15.5012 5.88479 15.5132 5.8261 15.5363C5.76741 15.5595 5.71413 15.5935 5.66934 15.6363L4.41826 16.8321C4.3287 16.9177 4.27845 17.0334 4.27845 17.154C4.27845 17.2746 4.3287 17.3903 4.41826 17.4759L4.76465 17.807C4.49794 18.2373 4.29704 18.7014 4.16759 19.1858H3.68177C3.554 19.1858 3.43147 19.234 3.34112 19.3197C3.25077 19.4054 3.20001 19.5216 3.19999 19.6428V21.3341C3.2 21.4553 3.25076 21.5715 3.34111 21.6572C3.43146 21.7429 3.55399 21.7911 3.68177 21.7911H4.16759C4.29706 22.2755 4.49794 22.7395 4.76465 23.1698L4.41826 23.5009C4.3287 23.5866 4.27845 23.7023 4.27845 23.8229C4.27845 23.9435 4.3287 24.0592 4.41826 24.1448L5.66934 25.3406C5.71413 25.3834 5.76741 25.4173 5.8261 25.4405C5.88479 25.4637 5.94774 25.4756 6.01131 25.4756C6.07489 25.4756 6.13784 25.4637 6.19653 25.4405C6.25522 25.4173 6.3085 25.3834 6.35328 25.3406L6.69586 25.0132C7.14453 25.2665 7.62837 25.4576 8.13346 25.581V26.0494C8.13347 26.1706 8.18424 26.2869 8.27458 26.3726C8.36493 26.4583 8.48747 26.5064 8.61524 26.5064H10.3848C10.5125 26.5064 10.6351 26.4583 10.7254 26.3726C10.8157 26.2869 10.8665 26.1706 10.8665 26.0494V25.581C11.3716 25.4577 11.8555 25.2664 12.3041 25.0131L12.6467 25.3406C12.6915 25.3834 12.7448 25.4173 12.8035 25.4405C12.8622 25.4637 12.9251 25.4756 12.9887 25.4756C13.0523 25.4756 13.1152 25.4637 13.1739 25.4405C13.2326 25.4173 13.2859 25.3834 13.3307 25.3406L14.5817 24.1448C14.6713 24.0592 14.7215 23.9435 14.7215 23.8229C14.7215 23.7023 14.6713 23.5866 14.5817 23.5009L14.2353 23.1698C14.502 22.7395 14.703 22.2755 14.8324 21.7911H15.3183C15.446 21.7911 15.5686 21.7429 15.6589 21.6572C15.7493 21.5715 15.8 21.4553 15.8 21.3341V19.6428C15.8 19.5216 15.7493 19.4054 15.6589 19.3197C15.5686 19.234 15.446 19.1858 15.3183 19.1858H14.8355C14.7056 18.7009 14.5041 18.2364 14.2366 17.8057L14.5817 17.4759C14.6713 17.3903 14.7215 17.2746 14.7215 17.154C14.7215 17.0334 14.6713 16.9177 14.5817 16.8321L13.3307 15.6363C13.2859 15.5935 13.2326 15.5595 13.1739 15.5363C13.1152 15.5132 13.0523 15.5012 12.9887 15.5012C12.9251 15.5012 12.8622 15.5132 12.8035 15.5363C12.7448 15.5595 12.6915 15.5935 12.6467 15.6363L12.3055 15.9624C11.8565 15.7084 11.3722 15.5167 10.8665 15.3929V14.9274C10.8665 14.8062 10.8158 14.69 10.7254 14.6043C10.6351 14.5186 10.5125 14.4704 10.3848 14.4704H8.61524ZM9.09706 15.3844H9.90298V15.7586C9.90299 15.8657 9.94268 15.9694 10.0151 16.0516C10.0876 16.1338 10.1881 16.1893 10.2993 16.2083C10.945 16.3187 11.558 16.5615 12.0966 16.9203C12.1896 16.9822 12.3027 17.011 12.416 17.0015C12.5292 16.992 12.6352 16.9448 12.7153 16.8683L12.9886 16.6071L13.561 17.1541L13.2825 17.4202C13.2033 17.496 13.1545 17.5956 13.1446 17.7019C13.1347 17.8082 13.1643 17.9144 13.2283 18.0021C13.6039 18.5173 13.8585 19.1043 13.9744 19.7228C13.9942 19.8285 14.0525 19.9242 14.1393 19.9931C14.226 20.0621 14.3355 20.0999 14.4487 20.0999H14.8365V20.8771H14.4454C14.3322 20.8771 14.2226 20.9149 14.1359 20.9839C14.0491 21.0529 13.9908 21.1487 13.971 21.2545C13.8556 21.8725 13.6017 22.4592 13.2269 22.9742C13.1631 23.062 13.1336 23.1681 13.1436 23.2744C13.1536 23.3806 13.2024 23.4801 13.2816 23.5558L13.5611 23.8229L12.9888 24.3699L12.7144 24.1077C12.6343 24.0312 12.5284 23.984 12.4152 23.9744C12.3021 23.9649 12.189 23.9935 12.0959 24.0554C11.5575 24.4133 10.9448 24.6554 10.2996 24.7654C10.1884 24.7844 10.0877 24.8398 10.0153 24.922C9.94278 25.0043 9.90307 25.108 9.90307 25.2152V25.5925H9.09715V25.2152C9.09715 25.108 9.05743 25.0043 8.98494 24.922C8.91245 24.8398 8.8118 24.7844 8.70059 24.7654C8.05541 24.6554 7.44265 24.4133 6.90426 24.0554C6.81121 23.9935 6.69812 23.9649 6.58496 23.9744C6.4718 23.984 6.36584 24.0312 6.2858 24.1077L6.01144 24.3699L5.43911 23.8229L5.71866 23.5558C5.79782 23.4801 5.84659 23.3805 5.85654 23.2743C5.86648 23.1681 5.83697 23.062 5.7731 22.9742C5.3983 22.4592 5.14437 21.8725 5.029 21.2545C5.00925 21.1487 4.95089 21.0529 4.86415 20.9839C4.7774 20.915 4.66782 20.8771 4.55461 20.8771H4.16357V20.0999H4.55461C4.66781 20.0999 4.77739 20.062 4.86413 19.9931C4.95087 19.9241 5.00924 19.8283 5.029 19.7226C5.14444 19.1046 5.3983 18.5178 5.7731 18.0028C5.83695 17.915 5.86646 17.8089 5.85651 17.7027C5.84657 17.5965 5.79781 17.4969 5.71866 17.4213L5.43911 17.1541L6.01137 16.6071L6.2858 16.8693C6.36584 16.9458 6.4718 16.993 6.58496 17.0026C6.69812 17.0122 6.81121 16.9835 6.90426 16.9217C7.44265 16.5638 8.05541 16.3216 8.70059 16.2116C8.81179 16.1926 8.91244 16.1372 8.98492 16.055C9.05741 15.9728 9.09713 15.869 9.09715 15.7618L9.09706 15.3844ZM9.49999 17.9066C8.00985 17.9066 6.79513 19.0698 6.79513 20.4884C6.79513 21.907 8.00985 23.0702 9.49999 23.0702C10.9901 23.0702 12.2049 21.907 12.2049 20.4884C12.2049 19.0698 10.9901 17.9066 9.49999 17.9066ZM9.49999 18.8206C10.4654 18.8206 11.2413 19.56 11.2413 20.4884C11.2413 21.4168 10.4654 22.1562 9.49999 22.1562C8.53457 22.1562 7.75868 21.4168 7.75868 20.4884C7.75868 19.56 8.53457 18.8206 9.49999 18.8206Z" fill="black"/>
</svg>
