<svg width="16" height="19" viewBox="0 0 16 19" fill="none" xmlns="http://www.w3.org/2000/svg">
<path fill-rule="evenodd" clip-rule="evenodd" d="M14.9487 11.4386L14.9388 11.4286C14.4787 10.9956 13.4531 9.28799 13.3878 7.29246V5.06123C13.3878 2.26599 11.1184 0 7.99998 0C4.88162 0 2.61223 2.26599 2.61223 5.06123V7.1596C2.57959 8.89537 1.73218 10.7971 1.06121 11.4286L1.05114 11.4387C0.954385 11.5354 0.843397 11.6161 0.732588 11.6967L0.664703 11.7463C0.261535 12.0436 0 12.5218 0 13.0612C0 13.963 0.730956 14.6939 1.63265 14.6939H14.3673C15.2691 14.6939 16 13.963 16 13.0612C16 12.5218 15.7384 12.0436 15.3353 11.7463L15.2674 11.6967C15.1566 11.6161 15.0456 11.5354 14.9487 11.4386ZM4.24459 7.19031L4.24489 7.1596V5.06123C4.24489 3.2347 5.7148 1.63265 7.99998 1.63265C10.2852 1.63265 11.7551 3.2347 11.7551 5.06123V7.29246C11.7551 7.30092 11.7551 7.30938 11.7553 7.31782C11.7554 7.32718 11.7556 7.33653 11.7559 7.34589C11.7971 8.59906 12.1362 9.73162 12.5213 10.6052C12.8811 11.4213 13.3507 12.1661 13.7979 12.5966C13.9984 12.7963 14.2387 12.9687 14.3352 13.0379L14.3664 13.0604L1.63265 13.0612L1.66487 13.0379C1.76106 12.9688 2.00072 12.7969 2.20101 12.5977C2.78668 12.0364 3.26709 11.1506 3.59785 10.2997C3.94982 9.3941 4.22386 8.29291 4.24459 7.19031Z" fill="black"/>
<path d="M6.05095 17.0388C5.93607 16.7615 5.87695 16.4643 5.87695 16.1641H10.4484C10.4484 16.4643 10.3893 16.7615 10.2744 17.0388C10.1595 17.3161 9.99116 17.5681 9.77892 17.7804C9.56667 17.9926 9.31469 18.161 9.03738 18.2757C8.76006 18.3907 8.46283 18.4498 8.16267 18.4498C7.86251 18.4498 7.56528 18.3907 7.28796 18.2757C7.01065 18.161 6.75867 17.9926 6.54642 17.7804C6.33418 17.5681 6.16582 17.3161 6.05095 17.0388Z" fill="black"/>
</svg>
