<svg width="13" height="15" viewBox="0 0 13 15" fill="none" xmlns="http://www.w3.org/2000/svg">
<path d="M11.7085 2.29492L9.6832 0.877663C9.31454 0.620095 8.85877 0.519382 8.41596 0.597639C7.97316 0.675896 7.57951 0.926726 7.32147 1.29505L5.78167 3.49645L1.25166 9.97209C1.05257 10.2566 0.945642 10.5954 0.945351 10.9426L0.942186 13.1005C0.941883 13.3485 0.995958 13.5935 1.1006 13.8184C1.20524 14.0432 1.35791 14.2424 1.54784 14.4019C1.73777 14.5613 1.96035 14.6772 2.19989 14.7413C2.43944 14.8054 2.69011 14.8162 2.93426 14.7729C3.03218 14.7555 3.1284 14.7297 3.22186 14.6957L5.24986 13.9527C5.57599 13.8336 5.85757 13.617 6.05641 13.3323L10.5857 6.85612C10.6205 6.80639 10.6452 6.75027 10.6584 6.69099C10.6715 6.6317 10.6728 6.5704 10.6623 6.5106C10.6517 6.4508 10.6294 6.39367 10.5968 6.34248C10.5641 6.29129 10.5217 6.24704 10.4719 6.21226L6.80415 3.64773L8.07898 1.82514C8.19638 1.65763 8.37543 1.54355 8.57684 1.50796C8.77826 1.47236 8.98556 1.51816 9.15326 1.63529L11.1785 3.05254C11.3457 3.17018 11.4596 3.34926 11.4952 3.55062C11.5308 3.75197 11.4852 3.95923 11.3684 4.12706L10.66 5.13984C10.6226 5.18946 10.5956 5.24609 10.5806 5.30638C10.5656 5.36666 10.5629 5.42935 10.5726 5.49071C10.5823 5.55206 10.6043 5.61084 10.6373 5.66351C10.6702 5.71619 10.7134 5.76169 10.7643 5.79731C10.8152 5.83292 10.8727 5.85792 10.9335 5.87081C10.9943 5.8837 11.057 5.88422 11.118 5.87233C11.1789 5.86044 11.2369 5.8364 11.2883 5.80162C11.3398 5.76685 11.3837 5.72206 11.4175 5.66994L12.1259 4.65715C12.3834 4.28844 12.4841 3.83259 12.4058 3.38968C12.3275 2.94678 12.0767 2.55304 11.7085 2.29492ZM9.56305 6.70737L5.29861 12.8041C5.20835 12.9336 5.08033 13.0322 4.93202 13.0862L2.90523 13.829C2.78862 13.8717 2.66342 13.8857 2.54027 13.8696C2.41712 13.8536 2.29967 13.808 2.19788 13.7368C2.0961 13.6657 2.01299 13.571 1.95563 13.4608C1.89827 13.3506 1.86835 13.2282 1.86841 13.104L1.87236 10.9435C1.87232 10.7856 1.92098 10.6316 2.0117 10.5024L6.27615 4.40564L9.56305 6.70737Z" fill="black"/>
</svg>
